<?xml version="1.0" encoding="utf-8"?>
<!-- Generator: Adobe Illustrator 18.1.1, SVG Export Plug-In . SVG Version: 6.00 Build 0)  -->
<svg version="1.1" xmlns="http://www.w3.org/2000/svg" xmlns:xlink="http://www.w3.org/1999/xlink" x="0px" y="0px"
	 viewBox="0 0 799.9 799.9" enable-background="new 0 0 799.9 799.9" xml:space="preserve">
<g id="Background">
</g>
<g id="Objects">
	<path fill-rule="evenodd" clip-rule="evenodd" fill="#FAB7AB" d="M90.8,245.2h49.8c13.1,0,19.5,1.8,24,23.9
		c21,103.4,117.9,182.2,235.5,182.2c117.9,0,215.9-79,235.6-183.1c3.4-17.8,14.4-23,21.9-23h51.7c14.4,0,26.1,11.7,26.1,26.1v241.6
		c0,14.4-11.7,26.1-26.1,26.1H90.8c-14.4,0-26.1-11.7-26.1-26.1V271.3C64.7,257,76.4,245.2,90.8,245.2z"/>
	<path fill-rule="evenodd" clip-rule="evenodd" fill="#FAB7AB" d="M130.4,93.1c165.8,0,372.5,0,539,0c12.5,0,22.8,10.2,22.8,22.8
		v210.6c0,12.5-10.2,22.8-22.8,22.8h-539c-12.5,0-22.8-10.2-22.8-22.8V115.9C107.7,103.4,117.9,93.1,130.4,93.1z"/>
	<path fill-rule="evenodd" clip-rule="evenodd" fill="#F68773" d="M142.2,109c154.8,0,359.9,0,515.4,0c11.7,0,21.3,9.6,21.3,21.3
		v196.7c0,11.7-9.6,21.3-21.3,21.3H142.2c-11.7,0-21.3-9.6-21.3-21.3V130.2C121,118.5,130.6,109,142.2,109z"/>
	<rect x="35.2" y="203.8" fill-rule="evenodd" clip-rule="evenodd" fill="#454545" width="729.6" height="66.7"/>
	<rect x="134.8" y="11.8" fill-rule="evenodd" clip-rule="evenodd" fill="#FFFFFF" width="530.4" height="314.5"/>
	<polygon fill-rule="evenodd" clip-rule="evenodd" fill="#F68773" points="735.2,270.5 735.2,512.9 723,572.6 400,669.8 78.1,573.6 
		64.7,512.9 64.7,270.5 	"/>
	<path fill-rule="evenodd" clip-rule="evenodd" fill="#A6B3B0" d="M345.5,270.5h103.3l150.8,53.9c-33,65.3-109.9,111.1-199.6,111.1
		c-92.6,0-171.6-48.9-202.7-117.6L345.5,270.5z"/>
	<path fill-rule="evenodd" clip-rule="evenodd" fill="#FAB7AB" d="M721.4,580.5l-41.3,135.1c-18.9,61.7-59.6,72.5-81.6,72.5H203.1
		c-28.8,0-65.2-18.9-81.6-72.5l-43.4-142c-4.2-13.7,1.8-22,19.8-22h606.5C719.6,551.6,726.5,563.9,721.4,580.5z"/>
	<path fill-rule="evenodd" clip-rule="evenodd" fill="#F89D8C" d="M209.4,758.8c-33,0-41.4-4.5-54.6-44l-39.5-117.4
		c-3.4-10.1,1.2-16.6,13.3-16.6c180.9,0,361.9,0,542.8,0c12.1,0,16.7,6.5,13.3,16.6l-39.5,117.4c-13.3,39.4-26.3,44-54.6,44H209.4z"
		/>
	<path fill-rule="evenodd" clip-rule="evenodd" fill="#454545" d="M215.3,758.8c-16.1,0-44.7-2.4-50.7-34.2l-17.4-91.3
		c-1.5-8.1,1-12.9,10.6-12.9h484.5c9.6,0,12.1,4.8,10.6,12.9l-17.4,91.3c-6.1,31.8-34.8,34.2-50.7,34.2H215.3z"/>
	<path fill-rule="evenodd" clip-rule="evenodd" fill="#FAB7AB" d="M90.8,252.5h49.8c13.1,0,19.5,1.8,24,23.9
		c21,103.4,117.9,174.9,235.5,174.9c117.9,0,215.9-71.7,235.6-175.8c3.4-17.8,14.4-23,21.9-23h51.7c14.4,0,26.1,11.7,26.1,26.1
		v234.3c0,14.4-11.7,26.1-26.1,26.1H90.8c-14.4,0-26.1-11.7-26.1-26.1V278.6C64.7,264.2,76.4,252.5,90.8,252.5z"/>
	<path fill-rule="evenodd" clip-rule="evenodd" fill="#F89D8C" d="M141.7,252.5c12.4,0.1,18.4,2.5,22.8,23.9
		c21,103.4,117.9,174.9,235.5,174.9c117.9,0,215.9-71.7,235.6-175.8c3.4-17.8,14.4-23,21.9-23h0.8C650,379.4,537.5,472.7,400,472.7
		C262.4,472.7,150,379.4,141.7,252.5z"/>
	<path fill-rule="evenodd" clip-rule="evenodd" fill="#F68773" d="M14.5,270.5c6,0,11-15,11-33.3s-4.9-33.3-11-33.3
		c-6,0-11,15-11,33.3S8.4,270.5,14.5,270.5z"/>
	<rect x="14.5" y="184" fill-rule="evenodd" clip-rule="evenodd" fill="#FAB7AB" width="20.7" height="106.3"/>
	<path fill-rule="evenodd" clip-rule="evenodd" fill="#F68773" d="M785.5,270.5c6,0,11-15,11-33.3s-4.9-33.3-11-33.3s-11,15-11,33.3
		S779.4,270.5,785.5,270.5z"/>
	<rect x="764.7" y="184" fill-rule="evenodd" clip-rule="evenodd" fill="#FAB7AB" width="20.7" height="106.3"/>
	
		<line fill-rule="evenodd" clip-rule="evenodd" fill="none" stroke="#808F8C" stroke-width="4.7999" stroke-miterlimit="22.9256" x1="35.2" y1="237.2" x2="764.7" y2="237.2"/>
	<g>
		
			<line fill-rule="evenodd" clip-rule="evenodd" fill="none" stroke="#808F8C" stroke-width="4.7999" stroke-miterlimit="22.9256" x1="189.4" y1="215.9" x2="189.4" y2="258.5"/>
		
			<line fill-rule="evenodd" clip-rule="evenodd" fill="none" stroke="#808F8C" stroke-width="4.7999" stroke-miterlimit="22.9256" x1="610.5" y1="215.9" x2="610.5" y2="258.5"/>
	</g>
	<g>
		<path fill-rule="evenodd" clip-rule="evenodd" fill="#D8E6E3" d="M192.9,628h17c3,0,5.5,2.5,5.5,5.5v14.1c0,3-2.5,5.5-5.5,5.5h-17
			c-3,0-5.5-2.5-5.5-5.5v-14.1C187.4,630.5,189.9,628,192.9,628z"/>
		<path fill-rule="evenodd" clip-rule="evenodd" fill="#D8E6E3" d="M174.7,660.7h17c3,0,5.5,2.5,5.5,5.5v14.1c0,3-2.5,5.5-5.5,5.5
			h-17c-3,0-5.5-2.5-5.5-5.5v-14.1C169.1,663.2,171.6,660.7,174.7,660.7z"/>
		<path fill-rule="evenodd" clip-rule="evenodd" fill="#D8E6E3" d="M192.9,693.3h17c3,0,5.5,2.5,5.5,5.5V713c0,3-2.5,5.5-5.5,5.5
			h-17c-3,0-5.5-2.5-5.5-5.5v-14.1C187.4,695.8,189.9,693.3,192.9,693.3z"/>
		<path fill-rule="evenodd" clip-rule="evenodd" fill="#D8E6E3" d="M229,628h17c3,0,5.5,2.5,5.5,5.5v14.1c0,3-2.5,5.5-5.5,5.5h-17
			c-3,0-5.5-2.5-5.5-5.5v-14.1C223.5,630.5,226,628,229,628z"/>
		<path fill-rule="evenodd" clip-rule="evenodd" fill="#D8E6E3" d="M210.8,660.7h17c3,0,5.5,2.5,5.5,5.5v14.1c0,3-2.5,5.5-5.5,5.5
			h-17c-3,0-5.5-2.5-5.5-5.5v-14.1C205.3,663.2,207.8,660.7,210.8,660.7z"/>
		<path fill-rule="evenodd" clip-rule="evenodd" fill="#D8E6E3" d="M229,693.3h17c3,0,5.5,2.5,5.5,5.5V713c0,3-2.5,5.5-5.5,5.5h-17
			c-3,0-5.5-2.5-5.5-5.5v-14.1C223.5,695.8,226,693.3,229,693.3z"/>
		<path fill-rule="evenodd" clip-rule="evenodd" fill="#D8E6E3" d="M210.8,726h17c3,0,5.5,2.5,5.5,5.5v14.1c0,3-2.5,5.5-5.5,5.5h-17
			c-3,0-5.5-2.5-5.5-5.5v-14.1C205.3,728.5,207.8,726,210.8,726z"/>
		<path fill-rule="evenodd" clip-rule="evenodd" fill="#D8E6E3" d="M265.2,628h17c3,0,5.5,2.5,5.5,5.5v14.1c0,3-2.5,5.5-5.5,5.5h-17
			c-3,0-5.5-2.5-5.5-5.5v-14.1C259.6,630.5,262.1,628,265.2,628z"/>
		<path fill-rule="evenodd" clip-rule="evenodd" fill="#D8E6E3" d="M246.9,660.7h17c3,0,5.5,2.5,5.5,5.5v14.1c0,3-2.5,5.5-5.5,5.5
			h-17c-3,0-5.5-2.5-5.5-5.5v-14.1C241.4,663.2,243.9,660.7,246.9,660.7z"/>
		<path fill-rule="evenodd" clip-rule="evenodd" fill="#D8E6E3" d="M265.2,693.3h17c3,0,5.5,2.5,5.5,5.5V713c0,3-2.5,5.5-5.5,5.5
			h-17c-3,0-5.5-2.5-5.5-5.5v-14.1C259.6,695.8,262.1,693.3,265.2,693.3z"/>
		<path fill-rule="evenodd" clip-rule="evenodd" fill="#D8E6E3" d="M301.3,628h17c3,0,5.5,2.5,5.5,5.5v14.1c0,3-2.5,5.5-5.5,5.5h-17
			c-3,0-5.5-2.5-5.5-5.5v-14.1C295.8,630.5,298.3,628,301.3,628z"/>
		<path fill-rule="evenodd" clip-rule="evenodd" fill="#D8E6E3" d="M283.1,660.7h17c3,0,5.5,2.5,5.5,5.5v14.1c0,3-2.5,5.5-5.5,5.5
			h-17c-3,0-5.5-2.5-5.5-5.5v-14.1C277.5,663.2,280,660.7,283.1,660.7z"/>
		<path fill-rule="evenodd" clip-rule="evenodd" fill="#D8E6E3" d="M301.3,693.3h17c3,0,5.5,2.5,5.5,5.5V713c0,3-2.5,5.5-5.5,5.5
			h-17c-3,0-5.5-2.5-5.5-5.5v-14.1C295.8,695.8,298.3,693.3,301.3,693.3z"/>
		<path fill-rule="evenodd" clip-rule="evenodd" fill="#D8E6E3" d="M337.4,628h17c3,0,5.5,2.5,5.5,5.5v14.1c0,3-2.5,5.5-5.5,5.5h-17
			c-3,0-5.5-2.5-5.5-5.5v-14.1C331.9,630.5,334.4,628,337.4,628z"/>
		<path fill-rule="evenodd" clip-rule="evenodd" fill="#D8E6E3" d="M319.2,660.7h17c3,0,5.5,2.5,5.5,5.5v14.1c0,3-2.5,5.5-5.5,5.5
			h-17c-3,0-5.5-2.5-5.5-5.5v-14.1C313.7,663.2,316.2,660.7,319.2,660.7z"/>
		<path fill-rule="evenodd" clip-rule="evenodd" fill="#D8E6E3" d="M337.4,693.3h17c3,0,5.5,2.5,5.5,5.5V713c0,3-2.5,5.5-5.5,5.5
			h-17c-3,0-5.5-2.5-5.5-5.5v-14.1C331.9,695.8,334.4,693.3,337.4,693.3z"/>
		<path fill-rule="evenodd" clip-rule="evenodd" fill="#D8E6E3" d="M373.6,628h17c3,0,5.5,2.5,5.5,5.5v14.1c0,3-2.5,5.5-5.5,5.5h-17
			c-3,0-5.5-2.5-5.5-5.5v-14.1C368,630.5,370.5,628,373.6,628z"/>
		<path fill-rule="evenodd" clip-rule="evenodd" fill="#D8E6E3" d="M355.3,660.7h17c3,0,5.5,2.5,5.5,5.5v14.1c0,3-2.5,5.5-5.5,5.5
			h-17c-3,0-5.5-2.5-5.5-5.5v-14.1C349.8,663.2,352.3,660.7,355.3,660.7z"/>
		<path fill-rule="evenodd" clip-rule="evenodd" fill="#D8E6E3" d="M373.6,693.3h17c3,0,5.5,2.5,5.5,5.5V713c0,3-2.5,5.5-5.5,5.5
			h-17c-3,0-5.5-2.5-5.5-5.5v-14.1C368,695.8,370.5,693.3,373.6,693.3z"/>
		<path fill-rule="evenodd" clip-rule="evenodd" fill="#D8E6E3" d="M409.7,628h17c3,0,5.5,2.5,5.5,5.5v14.1c0,3-2.5,5.5-5.5,5.5h-17
			c-3,0-5.5-2.5-5.5-5.5v-14.1C404.2,630.5,406.7,628,409.7,628z"/>
		<path fill-rule="evenodd" clip-rule="evenodd" fill="#D8E6E3" d="M391.5,660.7h17c3,0,5.5,2.5,5.5,5.5v14.1c0,3-2.5,5.5-5.5,5.5
			h-17c-3,0-5.5-2.5-5.5-5.5v-14.1C385.9,663.2,388.4,660.7,391.5,660.7z"/>
		<path fill-rule="evenodd" clip-rule="evenodd" fill="#D8E6E3" d="M409.7,693.3h17c3,0,5.5,2.5,5.5,5.5V713c0,3-2.5,5.5-5.5,5.5
			h-17c-3,0-5.5-2.5-5.5-5.5v-14.1C404.2,695.8,406.7,693.3,409.7,693.3z"/>
		<path fill-rule="evenodd" clip-rule="evenodd" fill="#D8E6E3" d="M445.8,628h17c3,0,5.5,2.5,5.5,5.5v14.1c0,3-2.5,5.5-5.5,5.5h-17
			c-3,0-5.5-2.5-5.5-5.5v-14.1C440.3,630.5,442.8,628,445.8,628z"/>
		<path fill-rule="evenodd" clip-rule="evenodd" fill="#D8E6E3" d="M427.6,660.7h17c3,0,5.5,2.5,5.5,5.5v14.1c0,3-2.5,5.5-5.5,5.5
			h-17c-3,0-5.5-2.5-5.5-5.5v-14.1C422.1,663.2,424.6,660.7,427.6,660.7z"/>
		<path fill-rule="evenodd" clip-rule="evenodd" fill="#D8E6E3" d="M445.8,693.3h17c3,0,5.5,2.5,5.5,5.5V713c0,3-2.5,5.5-5.5,5.5
			h-17c-3,0-5.5-2.5-5.5-5.5v-14.1C440.3,695.8,442.8,693.3,445.8,693.3z"/>
		<path fill-rule="evenodd" clip-rule="evenodd" fill="#D8E6E3" d="M482,628h17c3,0,5.5,2.5,5.5,5.5v14.1c0,3-2.5,5.5-5.5,5.5h-17
			c-3,0-5.5-2.5-5.5-5.5v-14.1C476.4,630.5,478.9,628,482,628z"/>
		<path fill-rule="evenodd" clip-rule="evenodd" fill="#D8E6E3" d="M463.7,660.7h17c3,0,5.5,2.5,5.5,5.5v14.1c0,3-2.5,5.5-5.5,5.5
			h-17c-3,0-5.5-2.5-5.5-5.5v-14.1C458.2,663.2,460.7,660.7,463.7,660.7z"/>
		<path fill-rule="evenodd" clip-rule="evenodd" fill="#D8E6E3" d="M482,693.3h17c3,0,5.5,2.5,5.5,5.5V713c0,3-2.5,5.5-5.5,5.5h-17
			c-3,0-5.5-2.5-5.5-5.5v-14.1C476.4,695.8,478.9,693.3,482,693.3z"/>
		<path fill-rule="evenodd" clip-rule="evenodd" fill="#D8E6E3" d="M518.1,628h17c3,0,5.5,2.5,5.5,5.5v14.1c0,3-2.5,5.5-5.5,5.5h-17
			c-3,0-5.5-2.5-5.5-5.5v-14.1C512.6,630.5,515,628,518.1,628z"/>
		<path fill-rule="evenodd" clip-rule="evenodd" fill="#D8E6E3" d="M499.9,660.7h17c3,0,5.5,2.5,5.5,5.5v14.1c0,3-2.5,5.5-5.5,5.5
			h-17c-3,0-5.5-2.5-5.5-5.5v-14.1C494.3,663.2,496.8,660.7,499.9,660.7z"/>
		<path fill-rule="evenodd" clip-rule="evenodd" fill="#D8E6E3" d="M518.1,693.3h17c3,0,5.5,2.5,5.5,5.5V713c0,3-2.5,5.5-5.5,5.5
			h-17c-3,0-5.5-2.5-5.5-5.5v-14.1C512.6,695.8,515,693.3,518.1,693.3z"/>
		<path fill-rule="evenodd" clip-rule="evenodd" fill="#D8E6E3" d="M554.2,628h17c3,0,5.5,2.5,5.5,5.5v14.1c0,3-2.5,5.5-5.5,5.5h-17
			c-3,0-5.5-2.5-5.5-5.5v-14.1C548.7,630.5,551.2,628,554.2,628z"/>
		<path fill-rule="evenodd" clip-rule="evenodd" fill="#D8E6E3" d="M536,660.7h17c3,0,5.5,2.5,5.5,5.5v14.1c0,3-2.5,5.5-5.5,5.5h-17
			c-3,0-5.5-2.5-5.5-5.5v-14.1C530.5,663.2,533,660.7,536,660.7z"/>
		<path fill-rule="evenodd" clip-rule="evenodd" fill="#D8E6E3" d="M554.2,693.3h17c3,0,5.5,2.5,5.5,5.5V713c0,3-2.5,5.5-5.5,5.5
			h-17c-3,0-5.5-2.5-5.5-5.5v-14.1C548.7,695.8,551.2,693.3,554.2,693.3z"/>
		<path fill-rule="evenodd" clip-rule="evenodd" fill="#D8E6E3" d="M246.9,726H553c3,0,5.5,2.5,5.5,5.5v14.1c0,3-2.5,5.5-5.5,5.5
			H246.9c-3,0-5.5-2.5-5.5-5.5v-14.1C241.4,728.5,243.9,726,246.9,726z"/>
		<path fill-rule="evenodd" clip-rule="evenodd" fill="#D8E6E3" d="M590.4,628h17c3,0,5.5,2.5,5.5,5.5v14.1c0,3-2.5,5.5-5.5,5.5h-17
			c-3,0-5.5-2.5-5.5-5.5v-14.1C584.8,630.5,587.3,628,590.4,628z"/>
		<path fill-rule="evenodd" clip-rule="evenodd" fill="#D8E6E3" d="M572.1,660.7h17c3,0,5.5,2.5,5.5,5.5v14.1c0,3-2.5,5.5-5.5,5.5
			h-17c-3,0-5.5-2.5-5.5-5.5v-14.1C566.6,663.2,569.1,660.7,572.1,660.7z"/>
		<path fill-rule="evenodd" clip-rule="evenodd" fill="#D8E6E3" d="M590.4,693.3h17c3,0,5.5,2.5,5.5,5.5V713c0,3-2.5,5.5-5.5,5.5
			h-17c-3,0-5.5-2.5-5.5-5.5v-14.1C584.8,695.8,587.3,693.3,590.4,693.3z"/>
		<path fill-rule="evenodd" clip-rule="evenodd" fill="#D8E6E3" d="M572.1,726h17c3,0,5.5,2.5,5.5,5.5v14.1c0,3-2.5,5.5-5.5,5.5h-17
			c-3,0-5.5-2.5-5.5-5.5v-14.1C566.6,728.5,569.1,726,572.1,726z"/>
		<path fill-rule="evenodd" clip-rule="evenodd" fill="#D8E6E3" d="M608.3,660.7h17c3,0,5.5,2.5,5.5,5.5v14.1c0,3-2.5,5.5-5.5,5.5
			h-17c-3,0-5.5-2.5-5.5-5.5v-14.1C602.7,663.2,605.2,660.7,608.3,660.7z"/>
	</g>
	<path fill-rule="evenodd" clip-rule="evenodd" fill="#808F8C" d="M570.2,313.9c-28.1,55.7-93.7,94.7-170.1,94.7
		c-78.9,0-146.3-41.7-172.8-100.3l118.3-37.8h103.3L570.2,313.9z"/>
	<path fill-rule="evenodd" clip-rule="evenodd" fill="#F68773" d="M478.8,281.2c-13,25.8-43.4,43.9-78.8,43.9
		c-36.6,0-67.8-19.3-80-46.4v-8.2h158.7L478.8,281.2z"/>
	<path fill-rule="evenodd" clip-rule="evenodd" fill="#A6B3B0" d="M478.8,281.2c-13,25.8-43.4,43.9-78.8,43.9
		c-36.6,0-67.8-19.3-80-46.4l14.2-4.5c10.1,22.3,35.8,38.2,65.8,38.2c29.1,0,54.1-14.9,64.8-36.1L478.8,281.2z"/>
	<g>
		<path fill="#D8E6E3" d="M336.9,279.3l-132.6,52.2c-0.3-0.6-0.6-1.1-0.9-1.7l132.6-52.2C336.3,278.2,336.6,278.7,336.9,279.3z"/>
		<path fill="#D8E6E3" d="M339.3,283.1l-127.7,60.2c-0.4-0.5-0.7-1.1-1.1-1.6l127.7-60.2C338.6,282,339,282.6,339.3,283.1z"/>
		<path fill="#D8E6E3" d="M342,286.7l-122.2,67.8c-0.4-0.5-0.8-1-1.2-1.5l122.2-67.8C341.2,285.7,341.6,286.2,342,286.7z"/>
		<path fill="#D8E6E3" d="M345,290l-116.3,74.8c-0.4-0.5-0.9-1-1.3-1.4l116.3-74.8C344.1,289,344.5,289.5,345,290z"/>
		<path fill="#D8E6E3" d="M348.1,293.1l-109.9,81.4c-0.5-0.4-0.9-0.9-1.4-1.3l109.9-81.4C347.2,292.2,347.6,292.6,348.1,293.1z"/>
		<path fill="#D8E6E3" d="M351.4,295.9l-103.2,87.4c-0.5-0.4-1-0.8-1.5-1.2l103.2-87.4C350.4,295.1,350.9,295.5,351.4,295.9z"/>
		<path fill="#D8E6E3" d="M354.8,298.5l-96.1,92.9c-0.5-0.4-1-0.8-1.6-1.1l96.1-92.9C353.8,297.7,354.3,298.1,354.8,298.5z"/>
		<path fill="#D8E6E3" d="M358.4,300.8l-88.9,97.9c-0.5-0.3-1.1-0.7-1.6-1.1l88.9-97.9C357.3,300.1,357.8,300.5,358.4,300.8z"/>
		<path fill="#D8E6E3" d="M362,302.9l-81.4,102.4c-0.6-0.3-1.1-0.6-1.7-0.9L360.3,302C360.9,302.3,361.4,302.6,362,302.9z"/>
		<path fill="#D8E6E3" d="M365.7,304.8l-73.8,106.4c-0.6-0.3-1.2-0.6-1.7-0.9L364,304C364.5,304.2,365.1,304.5,365.7,304.8z"/>
		<path fill="#D8E6E3" d="M369.4,306.5l-66,110c-0.6-0.2-1.2-0.5-1.8-0.8l66-110C368.3,306,368.9,306.2,369.4,306.5z"/>
		<path fill="#D8E6E3" d="M373.2,307.9L315.1,421c-0.6-0.2-1.2-0.4-1.8-0.7l58.2-113.1C372,307.4,372.6,307.7,373.2,307.9z"/>
		<path fill="#D8E6E3" d="M377.1,309.1l-50.3,115.7c-0.6-0.2-1.2-0.4-1.8-0.6l50.3-115.7C375.8,308.7,376.4,308.9,377.1,309.1z"/>
		<path fill="#D8E6E3" d="M380.9,310.1l-42.3,118c-0.6-0.2-1.2-0.3-1.9-0.5l42.3-118C379.7,309.8,380.3,310,380.9,310.1z"/>
		<path fill="#D8E6E3" d="M384.8,310.9l-34.3,119.8c-0.6-0.1-1.3-0.3-1.9-0.4l34.3-119.8C383.5,310.7,384.1,310.8,384.8,310.9z"/>
		<path fill="#D8E6E3" d="M388.6,311.5l-26.2,121.2c-0.6-0.1-1.3-0.2-1.9-0.3l26.2-121.2C387.4,311.4,388,311.5,388.6,311.5z"/>
		<path fill="#D8E6E3" d="M392.5,312l-18.2,122.3c-0.6-0.1-1.3-0.1-1.9-0.2l18.2-122.2C391.2,311.9,391.9,311.9,392.5,312z"/>
		<path fill="#D8E6E3" d="M396.4,312.2l-10.1,122.9c-0.6,0-1.3-0.1-1.9-0.1l10.1-122.9C395.1,312.2,395.7,312.2,396.4,312.2z"/>
		<path fill="#D8E6E3" d="M400.2,312.3l-2.1,123.2c-0.6,0-1.3,0-1.9,0l2.1-123.2c0.6,0,1.1,0,1.7,0L400.2,312.3z"/>
		<path fill="#D8E6E3" d="M404.1,312.2l6,123.1c-0.6,0-1.3,0.1-1.9,0.1l-6-123.1C402.8,312.3,403.5,312.3,404.1,312.2z"/>
		<path fill="#D8E6E3" d="M408,312L422,434.6c-0.6,0.1-1.3,0.1-1.9,0.2l-14.1-122.6C406.7,312.1,407.3,312,408,312z"/>
		<path fill="#D8E6E3" d="M411.8,311.5l22.1,121.8c-0.6,0.1-1.3,0.2-1.9,0.2l-22.1-121.8C410.6,311.7,411.2,311.6,411.8,311.5z"/>
		<path fill="#D8E6E3" d="M415.7,310.9l30.2,120.6c-0.6,0.1-1.3,0.2-1.9,0.3l-30.2-120.6C414.4,311.1,415.1,311,415.7,310.9z"/>
		<path fill="#D8E6E3" d="M419.5,310l38.2,119c-0.6,0.1-1.2,0.3-1.9,0.4l-38.2-119C418.3,310.3,418.9,310.2,419.5,310z"/>
		<path fill="#D8E6E3" d="M423.3,309l46.2,116.9c-0.6,0.2-1.2,0.4-1.9,0.5l-46.2-116.9C422.1,309.4,422.7,309.2,423.3,309z"/>
		<path fill="#D8E6E3" d="M427.1,307.8l54.1,114.5c-0.6,0.2-1.2,0.4-1.8,0.6l-54.1-114.5C425.9,308.2,426.5,308,427.1,307.8z"/>
		<path fill="#D8E6E3" d="M430.9,306.3l62,111.6c-0.6,0.2-1.2,0.5-1.8,0.7l-62-111.6C429.7,306.8,430.3,306.6,430.9,306.3z"/>
		<path fill="#D8E6E3" d="M434.6,304.7L504.4,413c-0.6,0.3-1.2,0.5-1.8,0.8l-69.8-108.3C433.5,305.2,434,305,434.6,304.7z"/>
		<path fill="#D8E6E3" d="M438.3,302.8l77.5,104.5c-0.6,0.3-1.1,0.6-1.7,0.9l-77.5-104.5C437.1,303.4,437.7,303.1,438.3,302.8z"/>
		<path fill="#D8E6E3" d="M441.9,300.7L526.9,401c-0.6,0.3-1.1,0.7-1.7,1l-85.1-100.3C440.8,301.4,441.3,301.1,441.9,300.7z"/>
		<path fill="#D8E6E3" d="M445.4,298.4l92.4,95.5c-0.5,0.4-1.1,0.7-1.6,1.1l-92.4-95.5C444.3,299.1,444.9,298.8,445.4,298.4z"/>
		<path fill="#D8E6E3" d="M448.8,295.8l99.6,90.3c-0.5,0.4-1,0.8-1.5,1.2L447.2,297C447.8,296.6,448.3,296.2,448.8,295.8z"/>
		<path fill="#D8E6E3" d="M452,293l106.5,84.5c-0.5,0.4-1,0.9-1.4,1.3l-106.5-84.5C451.1,293.9,451.6,293.5,452,293z"/>
		<path fill="#D8E6E3" d="M455.1,290l113.1,78.2c-0.4,0.5-0.9,0.9-1.3,1.4l-113.1-78.2C454.2,290.9,454.7,290.4,455.1,290z"/>
		<path fill="#D8E6E3" d="M458.1,286.7l119.2,71.4c-0.4,0.5-0.8,1-1.3,1.5l-119.2-71.4C457.2,287.7,457.6,287.2,458.1,286.7z"/>
		<path fill="#D8E6E3" d="M460.7,283.1l125,64.2c-0.4,0.5-0.8,1-1.1,1.6l-125-64.2C460,284.2,460.4,283.6,460.7,283.1z"/>
		<path fill="#D8E6E3" d="M463.2,279.4l130.2,56.4c-0.3,0.5-0.7,1.1-1,1.6L462.2,281C462.5,280.5,462.8,279.9,463.2,279.4z"/>
		<path fill="#D8E6E3" d="M465.3,275.4l134.7,48.2c-0.3,0.6-0.6,1.1-0.9,1.7l-134.7-48.2C464.7,276.5,465,276,465.3,275.4z"/>
		<path fill="#D8E6E3" d="M334.8,275.3l-136.8,43.8c-0.3-0.6-0.6-1.2-0.8-1.7l136.8-43.8C334.2,274.1,334.5,274.7,334.8,275.3z"/>
	</g>
	<g>
		<path fill="#D8E6E3" d="M581.5,347.3v-2.1l4.2,2.1c-0.4,0.5-0.8,1-1.1,1.6L581.5,347.3L581.5,347.3z M581.5,332.7v-2.1l11.8,5.1
			c-0.3,0.5-0.7,1.1-1,1.6L581.5,332.7L581.5,332.7z M581.5,319v-2l18.5,6.6c-0.3,0.6-0.6,1.1-0.9,1.7L581.5,319z M581.5,316.9v2
			l-11.8-4.2c0.1-0.3,0.3-0.6,0.4-0.9l0.4-0.9L581.5,316.9L581.5,316.9z M581.5,330.6v2.1l-14.2-6.2v-2.1L581.5,330.6L581.5,330.6z
			 M581.5,345.1v2.1l-14.2-7.3v-2.1L581.5,345.1L581.5,345.1z M567.3,369.1v-1.6l0.9,0.6L567.3,369.1L567.3,369.1z M567.3,354.3
			v-2.2l10,6c-0.4,0.5-0.8,1-1.3,1.5L567.3,354.3z M567.3,324.5v2.1l-3.4-1.5c0.3-0.5,0.7-1.1,1-1.6L567.3,324.5L567.3,324.5z
			 M567.3,337.8v2.1l-10-5.1c0.4-0.5,0.8-1,1.1-1.6L567.3,337.8L567.3,337.8z M567.3,352.1v2.2l-13-7.8v-2.2L567.3,352.1
			L567.3,352.1z M567.3,367.6v1.6l-0.4,0.4l-12.6-8.7v-2.3L567.3,367.6L567.3,367.6z M554.3,376.6v-2.4l4.3,3.4
			c-0.5,0.4-1,0.9-1.4,1.3L554.3,376.6z M554.3,344.3v2.2L550,344c0.4-0.5,0.8-1,1.3-1.5L554.3,344.3L554.3,344.3z M554.3,358.6v2.3
			l-9-6.2v-2.3L554.3,358.6L554.3,358.6z M554.3,374.1v2.4l-9-7.1V367L554.3,374.1L554.3,374.1z M545.3,385.9v-2.6l3.1,2.8
			c-0.5,0.4-1,0.8-1.5,1.2L545.3,385.9z M545.3,352.3v2.3l-3.1-2.1c0.5-0.5,0.9-0.9,1.4-1.4L545.3,352.3L545.3,352.3z M545.3,367
			v2.4l-9.4-7.5v-2.4L545.3,367L545.3,367z M545.3,383.3v2.6l-9.4-8.6v-2.6L545.3,383.3L545.3,383.3z M535.8,394.6v-2.7l2,2.1
			c-0.5,0.4-1.1,0.7-1.6,1.1L535.8,394.6z M535.8,359.5v2.4l-2-1.6c0.5-0.4,1-0.9,1.4-1.3L535.8,359.5L535.8,359.5z M535.8,374.7
			v2.6l-9.8-8.9v-1.5l0.6-0.5L535.8,374.7L535.8,374.7z M535.8,391.9v2.7l-9.8-10.1v-2.8L535.8,391.9L535.8,391.9z M526,401.6v-1.6
			l0.9,1.1L526,401.6z M526,366.9v1.5l-0.9-0.8L526,366.9L526,366.9z M526,381.7v2.8l-4.5-4.7V377L526,381.7L526,381.7z M526,399.9
			v1.6l-0.7,0.4l-3.8-4.5v-3L526,399.9z M521.5,377v2.7l-5.4-5.6c0.5-0.4,1.1-0.7,1.6-1.1L521.5,377L521.5,377z M521.5,394.6v3
			l-10.2-12.1v-3L521.5,394.6L521.5,394.6z M511.2,404.4v-3.2l4.5,6.1c-0.6,0.3-1.1,0.6-1.7,0.9L511.2,404.4z M511.2,382.5v3
			l-4.5-5.4c0.6-0.3,1.1-0.7,1.7-1L511.2,382.5L511.2,382.5z M511.2,401.2v3.2l-10.4-14.1v-3.2L511.2,401.2L511.2,401.2z
			 M500.8,410.9v-3.5l3.6,5.6c-0.6,0.3-1.2,0.5-1.8,0.8L500.8,410.9z M500.8,387.1v3.2l-3.6-4.9c0.6-0.3,1.1-0.6,1.7-0.9
			L500.8,387.1L500.8,387.1z M500.8,407.4v3.5l-10.6-16.5v-3.5L500.8,407.4L500.8,407.4z M490.2,417V413l2.7,4.9
			c-0.6,0.2-1.2,0.5-1.8,0.7L490.2,417z M490.2,390.9v3.5l-2.7-4.2c0.6-0.3,1.2-0.5,1.8-0.8L490.2,390.9L490.2,390.9z M490.2,413
			l-10.7-19.4v3.9l10.7,19.3V413L490.2,413z M479.4,422.9v-4.5l1.8,3.9C480.7,422.5,480,422.7,479.4,422.9L479.4,422.9z
			 M479.4,393.7v3.9l-1.8-3.3C478.2,394.1,478.8,393.8,479.4,393.7L479.4,393.7L479.4,393.7z M479.4,418.4l-10-21.1l-0.9,0.3v2.3
			l10.8,22.9V418.4L479.4,418.4z M468.6,426.2v-2.7l1,2.4L468.6,426.2z M468.6,397.6v2.3l-1-2C467.9,397.8,468.3,397.7,468.6,397.6
			L468.6,397.6z M468.6,423.5v2.7l-0.9,0.3l-10-25.4v-0.2c0.6-0.2,1.2-0.3,1.8-0.5L468.6,423.5L468.6,423.5z M457.6,429v-0.2V429
			L457.6,429z M457.6,400.9v0.2V400.9L457.6,400.9L457.6,400.9z M457.6,428.8v0.2c-0.6,0.1-1.2,0.3-1.8,0.4l-8.3-26
			c0.6-0.1,1.2-0.3,1.9-0.4L457.6,428.8L457.6,428.8z M337.3,427.7v-1.6l8.7-24.3c0.6,0.2,1.2,0.3,1.9,0.5l-9.2,25.8L337.3,427.7
			L337.3,427.7z M337.3,400.7v-1.3l0.5,0.2L337.3,400.7L337.3,400.7z M358,404.6l-7.5,26.2c-0.6-0.1-1.3-0.3-1.9-0.4l7.5-26.2
			C356.7,404.3,357.3,404.4,358,404.6L358,404.6z M368.1,406.3l-5.7,26.5c-0.6-0.1-1.3-0.2-1.9-0.3l5.7-26.5
			C366.8,406.1,367.5,406.2,368.1,406.3L368.1,406.3z M378.3,407.6l-4,26.7c-0.6-0.1-1.3-0.1-1.9-0.2l4-26.7
			C377,407.4,377.6,407.5,378.3,407.6L378.3,407.6z M388.4,408.3l-2.2,26.8c-0.6,0-1.3-0.1-1.9-0.1l2.2-26.8
			C387.2,408.2,387.8,408.3,388.4,408.3L388.4,408.3z M398.6,408.6l-0.5,26.9c-0.6,0-1.3,0-1.9,0l0.5-26.9
			C397.3,408.6,398,408.6,398.6,408.6L398.6,408.6z M408.8,408.4l1.3,26.9c-0.6,0-1.3,0.1-1.9,0.1l-1.3-26.9
			C407.5,408.5,408.2,408.5,408.8,408.4L408.8,408.4z M419,407.8l3.1,26.8c-0.6,0.1-1.3,0.1-1.9,0.2l-3.1-26.8
			C417.7,407.9,418.3,407.9,419,407.8L419,407.8z M429.1,406.7l4.8,26.6c-0.6,0.1-1.3,0.2-1.9,0.2l-4.8-26.6
			C427.9,406.9,428.5,406.8,429.1,406.7L429.1,406.7z M439.3,405.1l6.6,26.3c-0.6,0.1-1.3,0.2-1.9,0.3l-6.6-26.3
			C438,405.3,438.6,405.2,439.3,405.1z M337.3,399.4v1.3l-10.5,24.1l-0.4-0.1V421l9.6-22C336.4,399.1,336.8,399.3,337.3,399.4
			L337.3,399.4z M337.3,426.2v1.6l-0.5-0.1L337.3,426.2L337.3,426.2z M326.4,399v-3.2c0.5,0.2,0.9,0.3,1.4,0.5L326.4,399z
			 M326.4,395.8v3.2l-10.8,21v-4.2l10.4-20.2L326.4,395.8L326.4,395.8z M326.4,421v3.7l-1.4-0.4L326.4,421L326.4,421z M315.5,396.2
			l2.3-3.8c-0.6-0.2-1.2-0.5-1.8-0.8l-0.5,0.9V396.2z M315.5,392.5v3.7l-10.7,17.8v-3.7L315.5,392.5L315.5,392.5z M315.5,415.8v4.2
			l-0.5,0.9c-0.6-0.2-1.2-0.4-1.8-0.7L315.5,415.8L315.5,415.8z M304.8,392.6l3.2-4.6c-0.6-0.3-1.2-0.6-1.7-0.9l-1.5,2.1V392.6z
			 M304.8,389.2v3.4l-10.6,15.2v-3.4L304.8,389.2L304.8,389.2z M304.8,410.4v3.7l-1.4,2.4c-0.6-0.2-1.2-0.5-1.8-0.8L304.8,410.4
			L304.8,410.4z M294.3,388.1V385l2.4-3c0.6,0.3,1.1,0.6,1.7,0.9L294.3,388.1z M294.3,385v3.1l-13.7,17.2c-0.4-0.2-0.9-0.5-1.3-0.7
			v-0.7L294.3,385L294.3,385z M294.3,404.5l-4.1,5.9c0.6,0.3,1.2,0.6,1.7,0.9l2.4-3.4V404.5L294.3,404.5z M279.3,387.9l9.6-10.6
			c-0.5-0.3-1.1-0.7-1.6-1.1l-8,8.8V387.9L279.3,387.9z M279.3,371.5v-0.7l0.4,0.3L279.3,371.5z M279.3,370.8v0.7l-10,9.6v-2.7
			l8.8-8.5C278.5,370.2,278.9,370.5,279.3,370.8L279.3,370.8z M279.3,385.1v2.8l-9.8,10.8l-0.2-0.1v-2.5L279.3,385.1L279.3,385.1z
			 M279.3,403.9v0.7l-0.4-0.2L279.3,403.9L279.3,403.9z M269.3,365.4V363c0.5,0.4,1,0.8,1.4,1.2L269.3,365.4z M269.3,363v2.4
			l-9.7,8.2v-2.5L269.3,363L269.3,363L269.3,363z M269.3,378.5v2.7l-9.7,9.3v-2.7L269.3,378.5L269.3,378.5z M269.3,396.1v2.5
			c-0.5-0.3-1-0.6-1.4-0.9L269.3,396.1L269.3,396.1z M259.7,358.5v-2.4l1.1-0.8c0.5,0.4,0.9,0.9,1.4,1.3L259.7,358.5z M259.7,356.2
			v2.4l-9.3,6.8V363L259.7,356.2L259.7,356.2z M259.7,371.1v2.5l-9.3,7.8v-2.5L259.7,371.1L259.7,371.1z M259.7,387.8v2.7l-1,0.9
			c-0.5-0.4-1-0.8-1.6-1.1L259.7,387.8L259.7,387.8z M250.4,350.8v-2.3l2.4-1.5c0.4,0.5,0.9,1,1.3,1.4L250.4,350.8z M250.4,348.6
			v2.3l-13.5,8.7v-2.3L250.4,348.6L250.4,348.6z M250.4,363v2.4l-12.2,9c-0.4-0.4-0.8-0.8-1.3-1.2V373L250.4,363L250.4,363z
			 M250.4,378.9v2.5l-2.2,1.8c-0.5-0.4-1-0.8-1.5-1.2L250.4,378.9L250.4,378.9z M236.9,344.9v-2.2l8.4-4.6c0.4,0.5,0.8,1,1.2,1.5
			L236.9,344.9L236.9,344.9z M236.9,331.4v-2.1l1.5-0.7c0.4,0.5,0.7,1.1,1.1,1.6L236.9,331.4z M233.3,320.1l-11.3,4.5v-2.1l10.4-4.1
			C232.6,319,232.9,319.6,233.3,320.1L233.3,320.1z M236.9,329.3v2.1l-15,7.1v-2.1L236.9,329.3L236.9,329.3z M236.9,342.8v2.2
			l-15,8.3v-2.2L236.9,342.8L236.9,342.8z M236.9,357.2v2.3l-8.2,5.3c-0.4-0.5-0.9-1-1.3-1.4L236.9,357.2L236.9,357.2z M236.9,373
			v0.2l-0.1-0.1L236.9,373L236.9,373z M221.9,311.4v-2l5.1-1.6l0.2,0.6c0.2,0.4,0.4,0.8,0.5,1.2L221.9,311.4z M221.9,324.6
			l-17.6,6.9c-0.3-0.6-0.6-1.1-0.9-1.7l18.5-7.3V324.6L221.9,324.6z M221.9,309.4v2l-24,7.7c-0.3-0.6-0.6-1.2-0.8-1.7L221.9,309.4
			L221.9,309.4z M221.9,336.4v2.1l-10.3,4.8c-0.4-0.5-0.7-1.1-1.1-1.6L221.9,336.4L221.9,336.4z M221.9,351.1v2.2l-2.1,1.2
			c-0.4-0.5-0.8-1-1.2-1.5L221.9,351.1z"/>
		<path fill="none" stroke="#D8E6E3" stroke-width="1.1999" stroke-miterlimit="22.9256" d="M233.3,320.1l-28.9,11.4
			c-0.3-0.6-0.6-1.1-0.9-1.7l28.9-11.4C232.6,319,232.9,319.6,233.3,320.1L233.3,320.1z M239.5,330.2l-27.9,13.2
			c-0.4-0.5-0.7-1.1-1.1-1.6l27.9-13.2C238.8,329.1,239.2,329.6,239.5,330.2L239.5,330.2z M246.5,339.6l-26.7,14.8
			c-0.4-0.5-0.8-1-1.2-1.5l26.7-14.8C245.7,338.6,246.1,339.1,246.5,339.6L246.5,339.6z M254.1,348.5l-25.4,16.3
			c-0.4-0.5-0.9-1-1.3-1.4l25.4-16.3C253.2,347.5,253.6,348,254.1,348.5L254.1,348.5z M262.2,356.7l-24,17.8
			c-0.5-0.4-0.9-0.9-1.4-1.3l24-17.8C261.3,355.8,261.7,356.2,262.2,356.7L262.2,356.7z M270.8,364.2l-22.5,19.1
			c-0.5-0.4-1-0.8-1.5-1.2l22.5-19.1C269.8,363.4,270.3,363.8,270.8,364.2L270.8,364.2z M279.7,371.1l-21,20.3
			c-0.5-0.4-1-0.8-1.6-1.1l21-20.3C278.6,370.3,279.2,370.7,279.7,371.1L279.7,371.1z M288.9,377.4l-19.4,21.4
			c-0.5-0.3-1.1-0.7-1.6-1.1l19.4-21.4C287.8,376.7,288.4,377,288.9,377.4L288.9,377.4z M298.4,383l-17.8,22.4
			c-0.6-0.3-1.1-0.6-1.7-0.9l17.8-22.4C297.2,382.4,297.8,382.7,298.4,383L298.4,383z M308,388l-16.1,23.2c-0.6-0.3-1.2-0.6-1.7-0.9
			l16.1-23.2C306.9,387.4,307.5,387.7,308,388L308,388z M317.8,392.4l-14.4,24c-0.6-0.2-1.2-0.5-1.8-0.8l14.4-24
			C316.7,391.9,317.2,392.2,317.8,392.4L317.8,392.4z M327.8,396.3L315.1,421c-0.6-0.2-1.2-0.4-1.8-0.7l12.7-24.7
			C326.6,395.8,327.2,396.1,327.8,396.3L327.8,396.3z M337.8,399.6l-11,25.3c-0.6-0.2-1.2-0.4-1.8-0.6l11-25.3
			C336.5,399.2,337.2,399.4,337.8,399.6L337.8,399.6z M347.8,402.3l-9.2,25.8c-0.6-0.2-1.2-0.3-1.9-0.5l9.2-25.8
			C346.6,402,347.2,402.2,347.8,402.3L347.8,402.3z M358,404.6l-7.5,26.2c-0.6-0.1-1.3-0.3-1.9-0.4l7.5-26.2
			C356.7,404.3,357.3,404.4,358,404.6L358,404.6z M368.1,406.3l-5.7,26.5c-0.6-0.1-1.3-0.2-1.9-0.3l5.7-26.5
			C366.8,406.1,367.5,406.2,368.1,406.3L368.1,406.3z M378.3,407.6l-4,26.7c-0.6-0.1-1.3-0.1-1.9-0.2l4-26.7
			C377,407.4,377.6,407.5,378.3,407.6L378.3,407.6z M388.4,408.3l-2.2,26.8c-0.6,0-1.3-0.1-1.9-0.1l2.2-26.8
			C387.2,408.2,387.8,408.3,388.4,408.3L388.4,408.3z M398.6,408.6l-0.5,26.9c-0.6,0-1.3,0-1.9,0l0.5-26.9
			C397.3,408.6,398,408.6,398.6,408.6L398.6,408.6z M408.8,408.4l1.3,26.9c-0.6,0-1.3,0.1-1.9,0.1l-1.3-26.9
			C407.5,408.5,408.2,408.5,408.8,408.4L408.8,408.4z M419,407.8l3.1,26.8c-0.6,0.1-1.3,0.1-1.9,0.2l-3.1-26.8
			C417.7,407.9,418.3,407.9,419,407.8L419,407.8z M429.1,406.7l4.8,26.6c-0.6,0.1-1.3,0.2-1.9,0.2l-4.8-26.6
			C427.9,406.9,428.5,406.8,429.1,406.7L429.1,406.7z M439.3,405.1l6.6,26.3c-0.6,0.1-1.3,0.2-1.9,0.3l-6.6-26.3
			C438,405.3,438.6,405.2,439.3,405.1L439.3,405.1z M449.4,403l8.3,26c-0.6,0.1-1.2,0.3-1.9,0.4l-8.3-26
			C448.1,403.3,448.7,403.2,449.4,403L449.4,403z M459.4,400.4l10.1,25.5c-0.6,0.2-1.2,0.4-1.9,0.5l-10.1-25.5
			C458.2,400.8,458.8,400.6,459.4,400.4L459.4,400.4z M469.4,397.3l11.8,25c-0.6,0.2-1.2,0.4-1.8,0.6l-11.8-25
			C468.2,397.7,468.8,397.5,469.4,397.3L469.4,397.3z M479.4,393.6l13.5,24.4c-0.6,0.2-1.2,0.5-1.8,0.7l-13.5-24.4
			C478.2,394.1,478.8,393.8,479.4,393.6L479.4,393.6z M489.2,389.4l15.2,23.6c-0.6,0.3-1.2,0.5-1.8,0.8l-15.2-23.6
			C488,389.9,488.6,389.6,489.2,389.4L489.2,389.4z M498.9,384.5l16.9,22.8c-0.6,0.3-1.1,0.6-1.7,0.9l-16.9-22.8
			C497.7,385.1,498.3,384.8,498.9,384.5L498.9,384.5z M508.4,379.1l18.6,21.9c-0.6,0.3-1.1,0.7-1.7,1l-18.6-21.9
			C507.3,379.8,507.8,379.4,508.4,379.1L508.4,379.1z M517.6,373.1l20.2,20.9c-0.5,0.4-1.1,0.7-1.6,1.1L516,374.2
			C516.6,373.8,517.1,373.4,517.6,373.1L517.6,373.1z M526.6,366.4l21.7,19.7c-0.5,0.4-1,0.8-1.5,1.2l-21.7-19.7
			C525.6,367.2,526.1,366.8,526.6,366.4L526.6,366.4z M535.3,359.1l23.2,18.4c-0.5,0.4-1,0.9-1.4,1.3l-23.2-18.4
			C534.3,359.9,534.8,359.5,535.3,359.1L535.3,359.1z M543.5,351.1l24.7,17.1c-0.4,0.5-0.9,0.9-1.3,1.4l-24.7-17.1
			C542.6,352,543.1,351.6,543.5,351.1L543.5,351.1z M551.3,342.5l26,15.6c-0.4,0.5-0.8,1-1.3,1.5L550,344
			C550.4,343.5,550.8,343,551.3,342.5L551.3,342.5z M558.4,333.3l27.3,14c-0.4,0.5-0.8,1-1.1,1.6l-27.3-14
			C557.7,334.3,558,333.8,558.4,333.3L558.4,333.3z M564.9,323.4l28.4,12.3c-0.3,0.5-0.7,1.1-1,1.6l-28.4-12.3
			C564.2,324.5,564.6,324,564.9,323.4L564.9,323.4z M570.6,313l29.5,10.5c-0.3,0.6-0.6,1.1-0.9,1.7l-29.4-10.5
			c0.1-0.3,0.3-0.6,0.4-0.9L570.6,313L570.6,313z M227.8,309.5l-29.9,9.6c-0.3-0.6-0.6-1.2-0.8-1.7l29.9-9.6l0.2,0.6
			C227.4,308.7,227.6,309.1,227.8,309.5z"/>
	</g>
	<g>
		<rect x="386.4" y="246.9" fill="#808F8C" width="7.7" height="38.3"/>
		<rect x="404.8" y="246.9" fill="#808F8C" width="7.7" height="38.3"/>
		<rect x="386.4" y="282.3" fill="#808F8C" width="26.1" height="26.1"/>
	</g>
</g>
</svg>
